<svg xmlns="http://www.w3.org/2000/svg" xmlns:xlink="http://www.w3.org/1999/xlink" width="500" zoomAndPan="magnify" viewBox="0 0 375 374.999991" height="500" preserveAspectRatio="xMidYMid meet" version="1.0">
  <defs>
    <clipPath id="49fea82d2e">
      <path d="M 109 4 L 358 4 L 358 371.261719 L 109 371.261719 Z M 109 4 " clip-rule="nonzero"/>
    </clipPath>
  </defs>
  
  <g clip-path="url(#49fea82d2e)">
    <path fill="#000000" d="M 179.53125 83.328125 C 180.675781 84.472656 182.105469 85.046875 183.535156 85.046875 L 217.859375 85.046875 C 219.289062 85.046875 220.71875 84.472656 221.863281 83.328125 L 231.300781 73.882812 C 234.160156 75.3125 237.308594 76.171875 240.738281 76.171875 C 251.894531 76.171875 260.761719 67.300781 260.761719 56.136719 C 260.761719 44.976562 251.894531 36.101562 240.738281 36.101562 C 229.585938 36.101562 220.71875 44.976562 220.71875 56.136719 C 220.71875 59.574219 221.574219 62.722656 223.007812 65.582031 L 215.570312 73.597656 L 185.824219 73.597656 L 166.375 54.132812 L 166.375 16.355469 L 182.964844 16.355469 C 183.535156 16.355469 184.109375 16.640625 184.679688 16.355469 C 235.589844 14.351562 287.929688 37.535156 313.386719 85.046875 L 294.222656 85.046875 C 291.648438 76.746094 284.214844 70.734375 275.0625 70.734375 C 263.90625 70.734375 255.039062 79.609375 255.039062 90.769531 C 255.039062 99.929688 261.046875 107.371094 269.339844 109.945312 L 269.339844 162.324219 L 226.4375 162.324219 C 223.292969 162.324219 220.71875 164.898438 220.71875 168.046875 L 220.71875 199.53125 L 209.277344 199.53125 L 209.277344 165.1875 C 209.277344 163.46875 208.417969 162.039062 207.273438 160.894531 L 189.257812 145.4375 L 189.257812 107.941406 L 212.710938 107.941406 L 220.433594 115.671875 C 219 118.53125 218.144531 121.679688 218.144531 125.117188 C 218.144531 136.277344 227.011719 145.152344 238.164062 145.152344 C 249.320312 145.152344 258.1875 136.277344 258.1875 125.117188 C 258.1875 113.953125 249.320312 105.082031 238.164062 105.082031 C 234.734375 105.082031 231.585938 105.9375 228.726562 107.371094 L 219.289062 97.925781 C 217.859375 97.066406 216.429688 96.496094 214.996094 96.496094 L 183.535156 96.496094 C 180.390625 96.496094 177.816406 99.070312 177.816406 102.21875 L 177.816406 148.011719 C 177.816406 149.730469 178.675781 151.160156 179.816406 152.304688 L 197.835938 167.761719 L 197.835938 199.53125 L 174.957031 199.53125 C 173.527344 199.53125 172.09375 200.105469 170.953125 201.25 L 125.1875 247.042969 C 124.046875 248.1875 123.472656 249.621094 123.472656 251.050781 L 123.472656 297.703125 C 115.179688 300.28125 109.171875 307.722656 109.171875 316.878906 C 109.171875 328.042969 118.039062 336.914062 129.191406 336.914062 C 140.347656 336.914062 149.214844 328.042969 149.214844 316.878906 C 149.214844 307.722656 143.207031 300.28125 134.914062 297.703125 L 134.914062 253.339844 L 177.242188 210.980469 L 280.78125 210.980469 C 283.070312 210.980469 285.070312 209.835938 285.929688 207.832031 L 303.089844 173.484375 C 303.375 172.628906 303.664062 171.769531 303.664062 170.910156 L 303.664062 150.875 L 328.832031 150.875 L 328.832031 174.34375 L 321.394531 190.660156 C 320.824219 192.089844 320.824219 193.519531 321.109375 194.953125 L 346.277344 262.210938 C 346.277344 262.5 346.277344 262.785156 346.277344 263.070312 C 345.992188 263.359375 345.992188 263.359375 345.707031 263.359375 L 321.109375 263.359375 C 319.394531 263.359375 317.675781 264.214844 316.53125 265.648438 C 315.390625 267.078125 315.101562 269.082031 315.675781 270.800781 L 322.539062 290.835938 L 309.382812 295.414062 C 307.667969 295.984375 306.238281 297.417969 305.664062 299.132812 C 305.09375 300.851562 305.378906 302.855469 306.523438 304.285156 L 315.101562 316.019531 L 307.667969 321.746094 C 306.238281 322.890625 305.378906 324.609375 305.378906 326.324219 L 305.378906 340.921875 C 305.378906 347.503906 301.945312 353.800781 296.226562 356.949219 C 293.652344 358.667969 290.503906 359.527344 287.359375 359.527344 C 263.621094 359.8125 172.09375 329.757812 172.09375 279.671875 L 172.09375 267.652344 C 172.09375 264.503906 169.519531 261.925781 166.375 261.925781 C 163.230469 261.925781 160.65625 264.503906 160.65625 267.652344 L 160.65625 279.671875 C 160.65625 340.636719 263.335938 371.261719 287.644531 371.261719 C 292.792969 371.261719 297.941406 369.828125 302.230469 367.253906 C 311.382812 361.816406 316.820312 352.085938 316.820312 341.207031 L 316.820312 329.1875 L 326.257812 321.746094 C 328.546875 319.742188 329.117188 316.308594 327.402344 314.019531 L 320.25 304 L 331.691406 299.992188 C 334.550781 298.847656 336.269531 295.699219 335.125 292.835938 L 329.117188 274.804688 L 345.707031 274.804688 C 349.710938 274.804688 353.429688 272.804688 355.71875 269.65625 C 358.003906 266.21875 358.578125 261.925781 357.148438 258.207031 L 332.835938 193.234375 L 339.699219 178.066406 C 339.984375 177.207031 340.273438 176.632812 340.273438 175.777344 L 340.273438 144.292969 C 338.554688 101.074219 320.824219 64.722656 289.363281 38.964844 C 260.761719 15.496094 223.863281 3.761719 184.679688 4.90625 C 184.394531 4.90625 183.820312 4.90625 183.535156 4.90625 L 160.65625 4.90625 C 157.507812 4.90625 154.933594 7.480469 154.933594 10.628906 L 154.933594 56.425781 C 154.933594 57.855469 155.507812 59.285156 156.652344 60.429688 Z M 240.738281 47.835938 C 245.601562 47.835938 249.320312 51.558594 249.320312 56.425781 C 249.320312 61.289062 245.601562 65.011719 240.738281 65.011719 C 235.875 65.011719 232.160156 61.289062 232.160156 56.425781 C 232.160156 51.558594 235.875 47.835938 240.738281 47.835938 Z M 237.878906 116.53125 C 242.742188 116.53125 246.460938 120.25 246.460938 125.117188 C 246.460938 129.980469 242.742188 133.703125 237.878906 133.703125 C 233.015625 133.703125 229.296875 129.980469 229.296875 125.117188 C 229.296875 120.25 233.015625 116.53125 237.878906 116.53125 Z M 137.773438 316.878906 C 137.773438 321.746094 134.054688 325.464844 129.191406 325.464844 C 124.332031 325.464844 120.613281 321.746094 120.613281 316.878906 C 120.613281 312.015625 124.332031 308.292969 129.191406 308.292969 C 134.054688 308.292969 137.773438 312.015625 137.773438 316.878906 Z M 266.480469 90.769531 C 266.480469 85.90625 270.199219 82.183594 275.0625 82.183594 C 279.921875 82.183594 283.640625 85.90625 283.640625 90.769531 C 283.640625 95.636719 279.921875 99.355469 275.0625 99.355469 C 270.199219 99.355469 266.480469 95.636719 266.480469 90.769531 Z M 328.546875 139.425781 L 297.941406 139.425781 C 294.796875 139.425781 292.222656 142.003906 292.222656 145.152344 L 292.222656 169.480469 L 277.347656 199.53125 L 232.160156 199.53125 L 232.160156 173.773438 L 275.0625 173.773438 C 278.207031 173.773438 280.78125 171.195312 280.78125 168.046875 L 280.78125 109.945312 C 287.359375 107.941406 292.222656 102.792969 294.222656 96.496094 L 318.820312 96.496094 C 323.96875 109.375 327.402344 123.683594 328.546875 139.425781 Z M 328.546875 139.425781 " fill-opacity="1" fill-rule="nonzero"/>
  </g>

  <path fill="#000000" d="M 26.226562 44.117188 L 26.226562 93.632812 C 26.226562 95.347656 27.085938 97.066406 28.230469 98.210938 L 59.691406 123.398438 C 59.976562 123.683594 60.265625 123.683594 60.550781 123.972656 L 60.550781 185.222656 C 60.550781 186.652344 61.121094 187.796875 61.980469 188.941406 L 77.710938 207.257812 L 77.710938 254.769531 C 69.417969 257.347656 63.410156 264.789062 63.410156 273.949219 C 63.410156 285.109375 72.277344 293.984375 83.429688 293.984375 C 94.585938 293.984375 103.453125 285.109375 103.453125 273.949219 C 103.453125 264.789062 97.445312 257.347656 89.152344 254.769531 L 89.152344 205.257812 C 89.152344 203.824219 88.578125 202.679688 87.722656 201.535156 L 71.992188 183.21875 L 71.992188 57.570312 L 100.59375 73.882812 L 100.59375 85.617188 C 92.296875 88.195312 86.292969 95.636719 86.292969 104.792969 C 86.292969 115.957031 95.15625 124.828125 106.3125 124.828125 C 117.464844 124.828125 126.332031 115.957031 126.332031 104.792969 C 126.332031 95.636719 120.328125 88.195312 112.03125 85.617188 L 112.03125 70.734375 C 112.03125 68.730469 110.886719 66.726562 109.171875 65.871094 L 69.128906 42.972656 C 67.414062 41.828125 65.125 41.828125 63.410156 42.972656 C 61.695312 44.117188 60.550781 45.835938 60.550781 47.835938 L 60.550781 109.375 L 37.667969 90.769531 L 37.667969 44.117188 C 45.964844 41.542969 51.96875 34.097656 51.96875 24.941406 C 51.96875 13.777344 43.101562 4.90625 31.949219 4.90625 C 20.792969 4.90625 11.925781 13.777344 11.925781 24.941406 C 11.925781 34.097656 17.933594 41.542969 26.226562 44.117188 Z M 92.011719 273.949219 C 92.011719 278.8125 88.292969 282.535156 83.429688 282.535156 C 78.570312 282.535156 74.851562 278.8125 74.851562 273.949219 C 74.851562 269.082031 78.570312 265.359375 83.429688 265.359375 C 88.292969 265.359375 92.011719 269.082031 92.011719 273.949219 Z M 114.890625 105.082031 C 114.890625 109.945312 111.175781 113.667969 106.3125 113.667969 C 101.449219 113.667969 97.730469 109.945312 97.730469 105.082031 C 97.730469 100.214844 101.449219 96.496094 106.3125 96.496094 C 111.175781 96.496094 114.890625 100.214844 114.890625 105.082031 Z M 31.949219 16.355469 C 36.808594 16.355469 40.527344 20.074219 40.527344 24.941406 C 40.527344 29.804688 36.808594 33.527344 31.949219 33.527344 C 27.085938 33.527344 23.367188 29.804688 23.367188 24.941406 C 23.367188 20.074219 27.085938 16.355469 31.949219 16.355469 Z M 31.949219 16.355469 " fill-opacity="1" fill-rule="nonzero"/>
  
  
  <path fill="#000000" d="M 154.933594 95.921875 L 154.933594 179.78125 L 112.03125 222.714844 L 112.03125 181.5 C 120.328125 178.925781 126.332031 171.484375 126.332031 162.324219 C 126.332031 151.160156 117.464844 142.289062 106.3125 142.289062 C 95.15625 142.289062 86.292969 151.160156 86.292969 162.324219 C 86.292969 171.484375 92.296875 178.925781 100.59375 181.5 L 100.59375 236.738281 C 100.59375 239.03125 102.023438 241.03125 104.023438 241.890625 C 104.882812 242.464844 105.453125 242.464844 106.3125 242.464844 C 107.742188 242.464844 109.171875 241.890625 110.316406 240.746094 L 164.660156 186.367188 C 165.804688 185.222656 166.375 183.789062 166.375 182.359375 L 166.375 93.632812 C 166.375 92.199219 165.804688 90.769531 164.660156 89.625 L 143.492188 68.445312 L 143.492188 24.941406 C 143.492188 21.792969 140.917969 19.214844 137.773438 19.214844 C 134.628906 19.214844 132.054688 21.792969 132.054688 24.941406 L 132.054688 70.734375 C 132.054688 72.167969 132.625 73.597656 133.769531 74.742188 Z M 106.3125 170.910156 C 101.449219 170.910156 97.730469 167.1875 97.730469 162.324219 C 97.730469 157.457031 101.449219 153.738281 106.3125 153.738281 C 111.175781 153.738281 114.890625 157.457031 114.890625 162.324219 C 114.890625 167.1875 111.175781 170.910156 106.3125 170.910156 Z M 106.3125 170.910156 " fill-opacity="1" fill-rule="nonzero"/>
  
  
  <path fill="#000000" d="M 9.066406 233.878906 C 9.066406 245.039062 17.933594 253.914062 29.089844 253.914062 C 40.242188 253.914062 49.109375 245.039062 49.109375 233.878906 C 49.109375 224.71875 43.101562 217.277344 34.808594 214.699219 L 34.808594 175.777344 C 43.101562 173.199219 49.109375 165.757812 49.109375 156.597656 C 49.109375 145.4375 40.242188 136.5625 29.089844 136.5625 C 17.933594 136.5625 9.066406 145.4375 9.066406 156.597656 C 9.066406 165.757812 15.074219 173.199219 23.367188 175.777344 L 23.367188 214.699219 C 15.074219 217.277344 9.066406 224.71875 9.066406 233.878906 Z M 20.507812 156.597656 C 20.507812 151.734375 24.226562 148.011719 29.089844 148.011719 C 33.949219 148.011719 37.667969 151.734375 37.667969 156.597656 C 37.667969 161.464844 33.949219 165.1875 29.089844 165.1875 C 24.226562 165.1875 20.507812 161.464844 20.507812 156.597656 Z M 29.089844 225.292969 C 33.949219 225.292969 37.667969 229.011719 37.667969 233.878906 C 37.667969 238.742188 33.949219 242.464844 29.089844 242.464844 C 24.226562 242.464844 20.507812 238.742188 20.507812 233.878906 C 20.507812 229.011719 24.226562 225.292969 29.089844 225.292969 Z M 29.089844 225.292969 " fill-opacity="1" fill-rule="nonzero"/>
</svg>